<?xml version="1.0" encoding="utf-8"?>
<!-- Generator: Adobe Illustrator 23.0.3, SVG Export Plug-In . SVG Version: 6.00 Build 0)  -->
<svg fill="#ffd6b0" version="1.1" id="Layer_1" xmlns="http://www.w3.org/2000/svg" xmlns:xlink="http://www.w3.org/1999/xlink" x="0px" y="0px"
	 viewBox="0 0 56 56" style="enable-background:new 0 0 56 56;" xml:space="preserve">
<style type="text/css">
	.st0{fill:#FFFFFF;stroke:#191919;stroke-width:2;stroke-linecap:round;stroke-linejoin:round;}
	.st1{fill:none;stroke:#191919;stroke-width:2;stroke-linecap:round;stroke-linejoin:round;}
	.st2{stroke:#191919;stroke-width:2;stroke-linecap:round;stroke-linejoin:round;}
</style>
<path d="M28,0L28,0c15.5,0,28,12.5,28,28l0,0c0,15.5-12.5,28-28,28l0,0C12.5,56,0,43.5,0,28l0,0C0,12.5,12.5,0,28,0z"/>
<path class="st0" d="M16.4,11c-1.3,0-2.4,1.1-2.4,2.5v12.8h26.9v-8c0-0.7-0.2-1.3-0.7-1.8l-4.7-4.8c-0.5-0.3-1.1-0.7-1.8-0.7H16.4z"
	/>
<path class="st1" d="M24.7,16l2.8,2.9l-2.8,2.9"/>
<path class="st1" d="M20.8,16L18,18.9l2.8,2.9"/>
<path class="st1" d="M20,43.6h-3.6c-1.3,0-2.4-1.1-2.4-2.5V27"/>
<path class="st2" d="M24,43.8V32"/>
<path class="st1" d="M24,32h1.1c1.6,0,2.9,1.6,2.9,3.5s-1.3,3.5-2.9,3.5H24"/>
<path class="st1" d="M40.5,43.6V32.2"/>
<path class="st1" d="M40.3,32.1h1.1c1.8,0,3.4,1.5,3.4,3.4s-1.5,3.4-3.4,3.4h-1.1"/>
<path class="st1" d="M31.2,43.8V32"/>
<path class="st1" d="M36.2,43.8V32"/>
<path class="st1" d="M31.2,38.9h4.9"/>
</svg>
